<svg xmlns="http://www.w3.org/2000/svg" fill="none" viewBox="0 0 128 128"><g id="drizzle__drizzle" clip-path="url(#drizzle__clip0_1858_8512)"><g id="drizzle__Sky"><g id="drizzle__Clouds"><g id="drizzle__Cloud"><path id="drizzle__Cloud_2" fill="url(#drizzle__paint0_linear_1858_8512)" stroke="#e6effc" stroke-miterlimit="10" d="M55.262 48.475c4.86-7.864 15.035-11.095 23.553-7.532 8.506 3.56 13.323 13.06 11.088 22.022l-.161.65.669-.03c7.01-.306 13.089 5.407 13.089 12.443 0 6.811-5.728 12.472-12.523 12.472H37.954c-6.826.002-12.751-5.33-13.395-12.14-.643-6.808 4.178-13.148 10.884-14.415l.483-.092-.084-.484c-.816-4.745 1.284-9.652 5.263-12.356 3.99-2.712 9.34-2.86 13.475-.373l.423.255z"/></g></g></g><g id="drizzle__Precipitation"><g id="drizzle__Raindrops"><path id="drizzle__Raindrop 1" stroke="#0a5ad4" stroke-linecap="round" stroke-width="4" d="M52 87v3" transform="translate(0 8)"/><path id="drizzle__Raindrop 2" stroke="#0a5ad4" stroke-linecap="round" stroke-width="4" d="M64 87v3"/><path id="drizzle__Raindrop 3" stroke="#0a5ad4" stroke-linecap="round" stroke-width="4" d="M76 87v3" transform="translate(0 8)"/></g></g></g><defs><linearGradient id="drizzle__paint0_linear_1858_8512" x1="64.001" x2="64.001" y1="39" y2="89" gradientUnits="userSpaceOnUse"><stop stop-color="#f3f7fe"/><stop offset="1" stop-color="#e6effc"/></linearGradient><clipPath id="drizzle__clip0_1858_8512"><rect width="128" height="128" fill="#fff"/></clipPath></defs></svg>